PathFileType	4	(X/Y/Z)	E:\3-PhD\Data\MocapData\ElaboratedData\009\pre\dynamicElaborations\RunL1\RunL1.trc
DataRate	CameraRate	NumFrames	NumMarkers	Units	OrigDataRate	DataStartFrame
200	200	5	54	mm	200	438
Frame#	Time	FHD			LBHD			RBHD			C7			T10			CLAV			LSHO			LUUPA			LMUPA			LDUPA			LLEP			LMEP			LRAD			LUL			LRFIN			RSHO			RUPA1			RMUPA			RDUPA			RLEP			RMEP			RRAD			RUL			RUFIN			RASI			USACR			LSACR			RSACR			LTHI1			LTHI2			LTHI3			LTHI4			LTIB1			LTIB2			LTIB3			LTIB4			LLMAL			LHEE			LMT1			LMT2			RTHI			RTHI2			RTHI3			RTHI4			RLFC			RTIB1			RTIB2			RTIB3			RTIB4			RLMAL			RHEE			RMT1			RMT2			RMT5		
		X1	Y1	Z1	X2	Y2	Z2	X3	Y3	Z3	X4	Y4	Z4	X5	Y5	Z5	X6	Y6	Z6	X7	Y7	Z7	X8	Y8	Z8	X9	Y9	Z9	X10	Y10	Z10	X11	Y11	Z11	X12	Y12	Z12	X13	Y13	Z13	X14	Y14	Z14	X15	Y15	Z15	X16	Y16	Z16	X17	Y17	Z17	X18	Y18	Z18	X19	Y19	Z19	X20	Y20	Z20	X21	Y21	Z21	X22	Y22	Z22	X23	Y23	Z23	X24	Y24	Z24	X25	Y25	Z25	X26	Y26	Z26	X27	Y27	Z27	X28	Y28	Z28	X29	Y29	Z29	X30	Y30	Z30	X31	Y31	Z31	X32	Y32	Z32	X33	Y33	Z33	X34	Y34	Z34	X35	Y35	Z35	X36	Y36	Z36	X37	Y37	Z37	X38	Y38	Z38	X39	Y39	Z39	X40	Y40	Z40	X41	Y41	Z41	X42	Y42	Z42	X43	Y43	Z43	X44	Y44	Z44	X45	Y45	Z45	X46	Y46	Z46	X47	Y47	Z47	X48	Y48	Z48	X49	Y49	Z49	X50	Y50	Z50	X51	Y51	Z51	X52	Y52	Z52	X53	Y53	Z53	X54	Y54	Z54	

510	2.545000	-793.841987	1564.566126	444.140377	-958.041303	1622.590660	346.432663	-930.459584	1599.759634	467.203540	-1059.104483	1489.756549	372.916061	-1222.196965	1176.078491	343.260207	-955.579869	1363.369230	387.462040	-957.906411	1453.608832	251.855890	-981.364133	1321.427033	108.906757	-945.084011	1292.335774	112.796410	-978.638104	1262.228821	73.475545	-980.312866	1146.839746	33.813516	-1020.227337	1107.832526	90.860232	-838.426779	1202.780219	238.434239	-788.994725	1153.788141	215.243042	-790.422367	1254.003073	236.061443	-1022.464839	1440.292090	537.486491	-1185.332768	1405.390265	600.102651	-1194.059268	1359.719189	607.814475	-1251.387869	1386.888816	607.567553	-1376.115866	1336.370475	621.934410	-1380.954570	1316.520298	552.326990	-1364.129818	1073.606688	674.061591	-1430.869378	1093.101079	699.111300	-1353.457076	1044.503426	749.990498	-1097.499378	964.442296	437.147265	-1258.216587	1095.177386	357.057019	-1268.592568	1066.621714	327.824750	-1267.095454	1062.690434	386.399182	-1287.317573	758.467567	162.963788	-1305.268858	675.825198	172.739485	-1266.712664	654.811782	188.725585	-1360.077292	649.057971	179.320857	-1577.864009	470.364208	237.992956	-1633.092930	529.020128	204.105224	-1628.825044	488.935205	218.729947	-1705.377277	469.760992	253.979512	-1864.696656	506.413391	258.667979	-1878.791696	581.413843	314.311971	-1940.777173	370.183831	334.593054	-1949.799421	369.823254	288.875743	-1060.971751	762.748401	520.249020	-1001.872968	737.177076	510.815730	-977.438636	752.192973	492.042679	-986.785758	651.711277	499.753850	-919.697121	572.037328	475.242217	-806.510635	390.825756	437.463054	-836.824736	291.096194	476.652367	-796.569542	307.100629	456.994784	-774.743257	266.446710	424.781940	-785.326326	151.258195	455.232457	-839.265550	86.559210	412.058545	-630.961522	167.688380	371.392960	-621.764339	160.768287	409.563597	-642.599864	114.394548	458.570114	
511	2.550000	-764.641959	1563.614118	444.695921	-929.188741	1621.434682	347.323994	-901.284634	1598.346903	468.043319	-1029.056730	1489.173312	373.869859	-1192.847456	1175.332682	343.275760	-926.191386	1361.996828	387.611805	-927.987875	1451.839768	251.896092	-956.236300	1321.188044	108.570299	-920.770315	1290.956883	111.596021	-955.843575	1262.402927	72.302790	-961.472080	1146.430900	32.900785	-1004.177236	1109.091483	89.272269	-814.696145	1188.543095	237.766949	-769.299967	1136.439763	213.528349	-762.615217	1235.765542	236.240876	-992.842261	1438.267287	538.134461	-1155.333849	1400.991093	601.641452	-1163.296695	1355.161317	609.281209	-1221.159659	1381.481427	609.635166	-1344.841664	1329.073080	624.583597	-1349.843264	1309.296249	555.001600	-1327.545737	1066.372314	675.765535	-1394.460978	1084.576803	701.472018	-1315.557357	1037.169827	751.326916	-1067.987131	963.804285	438.438531	-1228.981409	1093.434458	356.167182	-1238.906708	1064.849789	326.806953	-1237.807690	1060.876304	385.436717	-1254.672797	756.378488	162.021796	-1271.415505	673.395474	170.440627	-1232.327162	652.594980	185.658370	-1325.716175	645.756427	177.529888	-1541.672427	470.632933	236.335564	-1594.477278	531.963931	203.102669	-1591.944041	491.707285	217.540153	-1668.901488	476.271615	253.552387	-1825.948184	521.126854	259.646036	-1835.983298	596.345698	316.465384	-1907.605897	387.735071	334.246319	-1917.166694	388.464958	288.938435	-1033.880146	758.850637	520.691855	-975.152875	732.267993	511.462406	-950.282398	746.914451	492.948013	-961.467289	646.682784	499.817981	-894.588393	566.490128	475.378645	-781.090509	385.207959	437.938950	-811.834111	285.298683	476.437497	-771.299998	301.484606	457.381664	-748.855072	260.951182	425.224394	-759.933909	145.637904	455.254466	-813.295461	81.559504	410.741902	-604.365270	161.690837	373.153332	-595.818446	154.429090	411.353208	-617.426918	107.836376	459.776298	
512	2.555000	-735.595888	1562.557800	445.074553	-900.558129	1620.016292	348.052036	-872.300426	1596.751870	468.730155	-999.262304	1488.269501	374.771414	-1163.388128	1174.268794	343.321910	-896.827710	1360.335384	387.669490	-898.245987	1449.752494	251.786582	-931.296522	1320.579986	108.286731	-896.694566	1289.218890	110.509681	-933.232276	1262.197897	71.331402	-942.849285	1145.804622	32.249522	-988.279872	1110.347259	87.969402	-791.352173	1173.264744	236.597184	-750.515526	1118.128749	211.241090	-735.233689	1215.894625	235.656718	-963.243904	1435.973815	538.741929	-1125.218627	1396.091772	603.372804	-1132.358074	1350.097753	610.889595	-1190.761266	1375.486915	611.986233	-1313.272581	1321.031074	627.638285	-1318.545352	1301.436257	558.070591	-1290.230567	1058.461011	677.365503	-1357.256145	1075.262254	703.942935	-1276.658704	1029.117280	752.431859	-1038.377788	963.029002	439.682959	-1199.606609	1091.460820	355.163850	-1209.160841	1062.808373	325.718519	-1208.425071	1058.875737	384.395670	-1222.044880	754.074985	161.053282	-1237.389629	670.759272	168.075255	-1197.748003	650.207318	182.489183	-1291.107414	642.135079	175.667960	-1504.548068	470.438591	234.754827	-1554.860100	534.170679	201.945261	-1554.029586	493.845583	216.315085	-1631.190535	482.186242	253.154202	-1785.527005	534.989700	260.490911	-1791.764157	610.290772	318.343823	-1872.548462	404.564902	333.831985	-1882.491071	406.348576	288.963843	-1006.666177	755.263867	520.985974	-948.280211	727.758414	512.152334	-922.906599	742.149302	494.029040	-935.889724	642.130520	499.707982	-869.358470	561.233618	475.613125	-756.657462	378.999705	438.225340	-788.472192	279.124686	475.985735	-747.593211	295.220355	457.503348	-724.883163	254.704554	425.345755	-737.247581	139.391752	454.906907	-790.504706	76.506048	409.017091	-580.485047	154.164411	374.672814	-572.681845	146.597166	412.891781	-595.391214	99.987103	460.760928	
513	2.560000	-706.700496	1561.446093	445.270853	-872.152348	1618.363815	348.625003	-843.500361	1595.015701	469.268707	-969.753808	1487.040171	375.639073	-1133.846513	1172.868490	343.387877	-867.491136	1358.415135	387.632596	-868.710955	1447.382408	251.520673	-906.549406	1319.586711	108.042810	-872.861305	1287.107948	109.565825	-910.786608	1261.572055	70.586707	-924.367105	1144.960763	31.868514	-972.375443	1111.582691	86.980289	-768.467027	1157.014928	234.859370	-732.683662	1099.053089	208.330623	-708.515037	1194.511258	234.234350	-933.675532	1433.425196	539.323480	-1094.975759	1390.690806	605.279701	-1101.238142	1344.533546	612.628296	-1160.184088	1368.917536	614.619181	-1281.378236	1312.251668	631.069507	-1287.035454	1292.943285	561.512334	-1252.183102	1049.914612	678.843907	-1319.246041	1065.204529	706.491468	-1236.774194	1020.424024	753.290463	-1008.668255	962.086940	440.839067	-1170.091472	1089.262075	354.082901	-1179.360405	1060.506176	324.595239	-1178.948570	1056.696074	383.311301	-1189.308579	751.427853	160.090688	-1203.070719	667.797876	165.721006	-1162.865359	647.561121	179.325361	-1256.132709	638.072584	173.762095	-1466.539323	469.798071	233.202337	-1514.320132	535.677335	200.612779	-1515.144057	495.374890	215.024842	-1592.316045	487.488960	252.729572	-1743.584768	547.912718	261.166807	-1746.310248	623.183099	319.913585	-1835.624858	420.536534	333.358679	-1845.822371	423.307549	288.945198	-979.348933	751.886577	521.171727	-921.290369	723.526223	512.881928	-895.358416	737.753220	495.288339	-910.108860	637.918458	499.480480	-844.085122	556.126352	475.948853	-733.171859	372.206838	438.287532	-766.624266	272.572582	475.282782	-725.357807	288.319524	457.319671	-702.738774	247.723935	425.099273	-717.080193	132.578507	454.165448	-770.744515	71.439988	406.993705	-559.256056	145.236710	375.746408	-552.224370	137.428529	413.984971	-576.287378	91.097507	461.423231	
514	2.565000	-677.951945	1560.329029	445.282413	-843.971532	1616.514064	349.056246	-814.875936	1593.180813	469.665696	-940.550075	1485.494492	376.487143	-1104.259004	1171.123378	343.465723	-838.192535	1356.274902	387.489796	-839.413178	1444.772341	251.090804	-881.997118	1318.195702	107.826860	-849.275580	1284.611220	108.801363	-888.490114	1260.489589	70.092362	-905.954742	1143.896612	31.762641	-956.301709	1112.764185	86.340957	-746.113580	1139.880494	232.487144	-715.828969	1079.419543	204.755915	-682.686463	1171.776774	231.906490	-904.143187	1430.646053	539.889126	-1064.586286	1384.790203	607.343618	-1069.925178	1338.476178	614.480681	-1129.409066	1361.785137	617.526459	-1249.123210	1302.744972	634.843269	-1255.281538	1283.818372	565.297245	-1213.402233	1040.781631	680.185986	-1280.421554	1054.454210	709.078561	-1195.927189	1011.167844	753.891017	-978.869131	960.956328	441.879601	-1140.447898	1086.845792	352.958749	-1149.518506	1057.954131	323.471681	-1149.395576	1054.345616	382.217180	-1156.338822	748.324913	159.143640	-1168.345874	664.404694	163.426512	-1127.578576	644.579785	176.261674	-1220.687024	633.469682	171.822561	-1427.683122	468.731134	231.625444	-1472.922303	536.527356	199.089745	-1475.341307	496.327897	213.637683	-1552.344569	492.169170	252.218975	-1700.276135	559.817647	261.638223	-1699.781983	634.973576	321.142033	-1796.894511	435.523714	332.831649	-1807.251952	439.192432	288.869117	-951.973653	748.605240	521.292717	-894.248276	719.434136	513.640170	-867.718222	733.552832	496.720595	-884.203419	633.898743	499.193792	-818.846343	551.040593	476.376207	-710.603092	364.889091	438.090104	-746.183005	265.706402	474.318554	-704.514329	280.857516	456.793086	-682.336020	240.099312	424.445785	-699.245682	125.351464	453.012141	-753.852167	66.476993	404.796813	-540.607319	135.121237	376.181941	-534.318884	127.190871	414.457923	-559.905733	81.543499	461.698103	
